<mxfile host="app.diagrams.net" modified="2020-10-07T07:22:14.631Z" agent="5.0 (Windows NT 10.0; Win64; x64) AppleWebKit/537.36 (KHTML, like Gecko) Chrome/85.0.4183.121 Safari/537.36" etag="A4g8Q0FxZXOKMZz-lcwW" version="13.4.9" type="github">
  <diagram id="7Fbh6fIKc5O3zmgyXtaW" name="Page-1">
    <mxGraphModel dx="1422" dy="762" grid="1" gridSize="10" guides="1" tooltips="1" connect="1" arrows="1" fold="1" page="1" pageScale="1" pageWidth="850" pageHeight="1100" math="0" shadow="0">
      <root>
        <mxCell id="0" />
        <mxCell id="1" parent="0" />
        <mxCell id="Zy0Il-Xh47oTYpSzpsB1-18" style="edgeStyle=orthogonalEdgeStyle;rounded=0;orthogonalLoop=1;jettySize=auto;html=1;exitX=0.5;exitY=1;exitDx=0;exitDy=0;entryX=0.5;entryY=0;entryDx=0;entryDy=0;" edge="1" parent="1" source="Zy0Il-Xh47oTYpSzpsB1-9" target="Zy0Il-Xh47oTYpSzpsB1-10">
          <mxGeometry relative="1" as="geometry" />
        </mxCell>
        <mxCell id="Zy0Il-Xh47oTYpSzpsB1-9" value="&lt;span&gt;i &amp;lt; max_array&lt;/span&gt;" style="rhombus;whiteSpace=wrap;html=1;" vertex="1" parent="1">
          <mxGeometry x="125" y="370" width="110" height="90" as="geometry" />
        </mxCell>
        <mxCell id="Zy0Il-Xh47oTYpSzpsB1-19" style="edgeStyle=orthogonalEdgeStyle;rounded=0;orthogonalLoop=1;jettySize=auto;html=1;exitX=0.5;exitY=1;exitDx=0;exitDy=0;entryX=0.5;entryY=0;entryDx=0;entryDy=0;" edge="1" parent="1" source="Zy0Il-Xh47oTYpSzpsB1-10" target="Zy0Il-Xh47oTYpSzpsB1-11">
          <mxGeometry relative="1" as="geometry" />
        </mxCell>
        <mxCell id="Zy0Il-Xh47oTYpSzpsB1-10" value="try:&amp;nbsp; &amp;nbsp; // Machine 1&lt;br&gt;&lt;ul&gt;&lt;li&gt;click test suit&lt;/li&gt;&lt;li&gt;Click Run&lt;/li&gt;&lt;li&gt;Edit MC_name, check health&lt;/li&gt;&lt;li&gt;Edit Build Record&lt;/li&gt;&lt;li&gt;click Finish&lt;/li&gt;&lt;li&gt;Back_page 2 time&lt;/li&gt;&lt;/ul&gt;Except:&amp;nbsp;" style="rounded=1;whiteSpace=wrap;html=1;align=left;" vertex="1" parent="1">
          <mxGeometry x="46.25000000000001" y="500" width="267.5" height="160" as="geometry" />
        </mxCell>
        <mxCell id="Zy0Il-Xh47oTYpSzpsB1-20" style="edgeStyle=orthogonalEdgeStyle;rounded=0;orthogonalLoop=1;jettySize=auto;html=1;exitX=0.5;exitY=1;exitDx=0;exitDy=0;entryX=0.5;entryY=0;entryDx=0;entryDy=0;" edge="1" parent="1" source="Zy0Il-Xh47oTYpSzpsB1-11" target="Zy0Il-Xh47oTYpSzpsB1-13">
          <mxGeometry relative="1" as="geometry" />
        </mxCell>
        <mxCell id="Zy0Il-Xh47oTYpSzpsB1-11" value="try:&amp;nbsp; &amp;nbsp; // Machine 2,3&lt;br&gt;&lt;ul&gt;&lt;li&gt;click test suit&lt;/li&gt;&lt;li&gt;Click Run&lt;/li&gt;&lt;li&gt;Edit MC_name, check health&lt;/li&gt;&lt;li&gt;Edit Build Record&lt;/li&gt;&lt;li&gt;click Finish&lt;/li&gt;&lt;li&gt;Back_page 2 time&lt;/li&gt;&lt;/ul&gt;Except:&amp;nbsp;" style="rounded=1;whiteSpace=wrap;html=1;align=left;" vertex="1" parent="1">
          <mxGeometry x="46.25000000000001" y="710" width="267.5" height="160" as="geometry" />
        </mxCell>
        <mxCell id="Zy0Il-Xh47oTYpSzpsB1-24" style="edgeStyle=orthogonalEdgeStyle;rounded=0;orthogonalLoop=1;jettySize=auto;html=1;exitX=0;exitY=0.5;exitDx=0;exitDy=0;" edge="1" parent="1" source="Zy0Il-Xh47oTYpSzpsB1-13">
          <mxGeometry relative="1" as="geometry">
            <mxPoint x="180" y="890" as="targetPoint" />
          </mxGeometry>
        </mxCell>
        <mxCell id="Zy0Il-Xh47oTYpSzpsB1-27" style="edgeStyle=orthogonalEdgeStyle;rounded=0;orthogonalLoop=1;jettySize=auto;html=1;exitX=0.5;exitY=1;exitDx=0;exitDy=0;entryX=0;entryY=0.5;entryDx=0;entryDy=0;" edge="1" parent="1" source="Zy0Il-Xh47oTYpSzpsB1-13" target="Zy0Il-Xh47oTYpSzpsB1-9">
          <mxGeometry relative="1" as="geometry">
            <Array as="points">
              <mxPoint x="180" y="1010" />
              <mxPoint x="20" y="1010" />
              <mxPoint x="20" y="415" />
            </Array>
          </mxGeometry>
        </mxCell>
        <mxCell id="Zy0Il-Xh47oTYpSzpsB1-13" value="Complete??" style="rhombus;whiteSpace=wrap;html=1;" vertex="1" parent="1">
          <mxGeometry x="140" y="910" width="80" height="80" as="geometry" />
        </mxCell>
        <mxCell id="Zy0Il-Xh47oTYpSzpsB1-22" value="False" style="text;html=1;strokeColor=none;fillColor=none;align=center;verticalAlign=middle;whiteSpace=wrap;rounded=0;" vertex="1" parent="1">
          <mxGeometry x="80" y="910" width="40" height="20" as="geometry" />
        </mxCell>
        <mxCell id="Zy0Il-Xh47oTYpSzpsB1-26" value="True" style="text;html=1;strokeColor=none;fillColor=none;align=center;verticalAlign=middle;whiteSpace=wrap;rounded=0;" vertex="1" parent="1">
          <mxGeometry x="80" y="990" width="40" height="20" as="geometry" />
        </mxCell>
        <mxCell id="Zy0Il-Xh47oTYpSzpsB1-35" style="edgeStyle=orthogonalEdgeStyle;rounded=0;orthogonalLoop=1;jettySize=auto;html=1;exitX=0.5;exitY=1;exitDx=0;exitDy=0;entryX=0.5;entryY=0;entryDx=0;entryDy=0;" edge="1" parent="1" source="Zy0Il-Xh47oTYpSzpsB1-28" target="Zy0Il-Xh47oTYpSzpsB1-9">
          <mxGeometry relative="1" as="geometry" />
        </mxCell>
        <mxCell id="Zy0Il-Xh47oTYpSzpsB1-28" value="&lt;span&gt;Find max array and length of that array&amp;nbsp;&lt;/span&gt;" style="rounded=1;whiteSpace=wrap;html=1;" vertex="1" parent="1">
          <mxGeometry x="60" y="270" width="240" height="60" as="geometry" />
        </mxCell>
        <mxCell id="Zy0Il-Xh47oTYpSzpsB1-33" style="edgeStyle=orthogonalEdgeStyle;rounded=0;orthogonalLoop=1;jettySize=auto;html=1;exitX=0.5;exitY=1;exitDx=0;exitDy=0;entryX=0.5;entryY=0;entryDx=0;entryDy=0;" edge="1" parent="1" source="Zy0Il-Xh47oTYpSzpsB1-29" target="Zy0Il-Xh47oTYpSzpsB1-30">
          <mxGeometry relative="1" as="geometry" />
        </mxCell>
        <mxCell id="Zy0Il-Xh47oTYpSzpsB1-29" value="&lt;span&gt;1439 Test Plan: Test suit Excution Reccord&lt;/span&gt;" style="rounded=1;whiteSpace=wrap;html=1;" vertex="1" parent="1">
          <mxGeometry x="60" y="60" width="240" height="60" as="geometry" />
        </mxCell>
        <mxCell id="Zy0Il-Xh47oTYpSzpsB1-34" style="edgeStyle=orthogonalEdgeStyle;rounded=0;orthogonalLoop=1;jettySize=auto;html=1;exitX=0.5;exitY=1;exitDx=0;exitDy=0;entryX=0.5;entryY=0;entryDx=0;entryDy=0;" edge="1" parent="1" source="Zy0Il-Xh47oTYpSzpsB1-30" target="Zy0Il-Xh47oTYpSzpsB1-28">
          <mxGeometry relative="1" as="geometry" />
        </mxCell>
        <mxCell id="Zy0Il-Xh47oTYpSzpsB1-30" value="&lt;i&gt;&lt;font style=&quot;font-size: 17px&quot;&gt;Create array&amp;nbsp;&lt;/font&gt;&lt;span style=&quot;font-size: 13px&quot;&gt;:&amp;nbsp;&lt;/span&gt;&lt;/i&gt;&lt;span&gt;(from excel)&lt;/span&gt;&lt;br&gt;&lt;div style=&quot;text-align: left&quot;&gt;&lt;font style=&quot;font-size: 12px&quot;&gt;Machine1: [ test_suit_name....]&lt;/font&gt;&lt;/div&gt;&lt;div style=&quot;text-align: left&quot;&gt;Machine2: [ test_suit_name, test_suit_name, test_suit_name....]&lt;/div&gt;&lt;div style=&quot;text-align: left&quot;&gt;Machine3: [ test_suit_name, test_suit_name....]&lt;/div&gt;&lt;span&gt;&amp;nbsp;&lt;/span&gt;" style="rounded=1;whiteSpace=wrap;html=1;" vertex="1" parent="1">
          <mxGeometry x="5" y="150" width="350" height="80" as="geometry" />
        </mxCell>
        <mxCell id="Zy0Il-Xh47oTYpSzpsB1-32" style="edgeStyle=orthogonalEdgeStyle;rounded=0;orthogonalLoop=1;jettySize=auto;html=1;exitX=0.5;exitY=1;exitDx=0;exitDy=0;entryX=0.5;entryY=0;entryDx=0;entryDy=0;" edge="1" parent="1" source="Zy0Il-Xh47oTYpSzpsB1-31" target="Zy0Il-Xh47oTYpSzpsB1-29">
          <mxGeometry relative="1" as="geometry" />
        </mxCell>
        <mxCell id="Zy0Il-Xh47oTYpSzpsB1-31" value="&lt;span&gt;Login&lt;/span&gt;" style="ellipse;whiteSpace=wrap;html=1;" vertex="1" parent="1">
          <mxGeometry x="140" width="80" height="40" as="geometry" />
        </mxCell>
        <mxCell id="Zy0Il-Xh47oTYpSzpsB1-36" value="True" style="text;html=1;strokeColor=none;fillColor=none;align=center;verticalAlign=middle;whiteSpace=wrap;rounded=0;" vertex="1" parent="1">
          <mxGeometry x="180" y="470" width="40" height="20" as="geometry" />
        </mxCell>
      </root>
    </mxGraphModel>
  </diagram>
</mxfile>
